<?xml version="1.0" encoding="UTF-8"?>
<svg width="28" height="28" viewBox="0 0 28 28" fill="none" xmlns="http://www.w3.org/2000/svg">
  <rect width="28" height="28" rx="8" fill="#E5E7EB"/>
  <g>
    <path d="M19.5 14.5c-.02-2.02 1.65-2.99 1.72-3.03-0.94-1.37-2.4-1.56-2.92-1.58-1.24-.13-2.42.73-3.05.73-.63 0-1.61-.71-2.65-.69-1.36.02-2.62.79-3.32 2.01-1.41 2.44-.36 6.05 1.01 8.03.67.97 1.47 2.06 2.52 2.02 1.01-.04 1.39-.65 2.61-.65 1.22 0 1.56.65 2.63.63 1.09-.02 1.77-.99 2.43-1.97.77-1.13 1.09-2.23 1.1-2.29-.02-.01-2.1-.81-2.12-3.22zm-2.5-5.89c.56-.68.94-1.62.84-2.56-.81.03-1.78.54-2.36 1.22-.52.6-.98 1.56-.81 2.48.86.07 1.77-.44 2.33-1.14z" fill="#fff"/>
  </g>
</svg> 